<?xml version="1.0" encoding="UTF-8" standalone="no"?><!-- Generator: Gravit.io --><svg xmlns="http://www.w3.org/2000/svg" xmlns:xlink="http://www.w3.org/1999/xlink" style="isolation:isolate" viewBox="0 0 124 88" width="124pt" height="88pt"><defs><clipPath id="_clipPath_MMGj2eXPq6H52sm3QiWoUgrXp3J8MN8E"><rect width="124" height="88"/></clipPath></defs><g clip-path="url(#_clipPath_MMGj2eXPq6H52sm3QiWoUgrXp3J8MN8E)"><clipPath id="_clipPath_lehTqBnFcOEQlO4CJVXq3I1YcFrNQEvC"><rect x="0" y="0" width="124" height="88" transform="matrix(1,0,0,1,0,0)" fill="rgb(255,255,255)"/></clipPath><g clip-path="url(#_clipPath_lehTqBnFcOEQlO4CJVXq3I1YcFrNQEvC)"><g><path d=" M 50.598 0 C 45.863 0 42 3.863 42 8.598 L 42 34.402 C 42 39.137 45.863 43 50.598 43 L 73.402 43 C 78.137 43 82 39.137 82 34.402 L 82 8.598 C 82 3.863 78.137 0 73.402 0 L 50.598 0 Z  M 50.598 2 L 73.402 2 C 75.153 1.996 76.834 2.69 78.072 3.928 C 79.31 5.166 80.004 6.847 80 8.598 L 80 27.402 C 80.004 29.153 79.31 30.834 78.072 32.072 C 76.834 33.31 75.153 34.004 73.402 34 L 50.598 34 C 48.847 34.004 47.166 33.31 45.928 32.072 C 44.69 30.834 43.996 29.153 44 27.402 L 44 8.598 C 43.996 6.847 44.69 5.166 45.928 3.928 C 47.166 2.69 48.847 1.996 50.598 2 L 50.598 2 Z  M 44 32.902 C 45.63 34.863 48.048 35.999 50.598 36 L 73.402 36 C 75.952 35.999 78.37 34.863 80 32.902 L 80 34.402 C 80.004 36.153 79.31 37.834 78.072 39.072 C 76.834 40.31 75.153 41.004 73.402 41 L 50.598 41 C 48.847 41.004 47.166 40.31 45.928 39.072 C 44.69 37.834 43.996 36.153 44 34.402 L 44 32.902 Z " fill="rgb(0,0,0)"/><path d=" M 50.598 45 C 45.863 45 42 48.863 42 53.598 L 42 79.402 C 42 84.137 45.863 88 50.598 88 L 73.402 88 C 78.137 88 82 84.137 82 79.402 L 82 53.598 C 82 48.863 78.137 45 73.402 45 L 50.598 45 Z  M 50.598 47 L 73.402 47 C 75.153 46.996 76.834 47.69 78.072 48.928 C 79.31 50.166 80.004 51.847 80 53.598 L 80 72.402 C 80.004 74.153 79.31 75.834 78.072 77.072 C 76.834 78.31 75.153 79.004 73.402 79 L 50.598 79 C 48.847 79.004 47.166 78.31 45.928 77.072 C 44.69 75.834 43.996 74.153 44 72.402 L 44 53.598 C 43.996 51.847 44.69 50.166 45.928 48.928 C 47.166 47.69 48.847 46.996 50.598 47 L 50.598 47 Z  M 44 77.902 C 45.63 79.863 48.048 80.999 50.598 81 L 73.402 81 C 75.952 80.999 78.37 79.863 80 77.902 L 80 79.402 C 80.004 81.153 79.31 82.834 78.072 84.072 C 76.834 85.31 75.153 86.004 73.402 86 L 50.598 86 C 48.847 86.004 47.166 85.31 45.928 84.072 C 44.69 82.834 43.996 81.153 44 79.402 L 44 77.902 Z " fill="rgb(0,0,0)"/><path d=" M 92.598 45 C 87.863 45 84 48.863 84 53.598 L 84 79.402 C 84 84.137 87.863 88 92.598 88 L 115.402 88 C 120.137 88 124 84.137 124 79.402 L 124 53.598 C 124 48.863 120.137 45 115.402 45 L 92.598 45 Z  M 92.598 47 L 115.402 47 C 117.153 46.996 118.834 47.69 120.072 48.928 C 121.31 50.166 122.004 51.847 122 53.598 L 122 72.402 C 122.004 74.153 121.31 75.834 120.072 77.072 C 118.834 78.31 117.153 79.004 115.402 79 L 92.598 79 C 90.847 79.004 89.166 78.31 87.928 77.072 C 86.69 75.834 85.996 74.153 86 72.402 L 86 53.598 C 85.996 51.847 86.69 50.166 87.928 48.928 C 89.166 47.69 90.847 46.996 92.598 47 L 92.598 47 Z  M 86 77.902 C 87.63 79.863 90.048 80.999 92.598 81 L 115.402 81 C 117.952 80.999 120.37 79.863 122 77.902 L 122 79.402 C 122.004 81.153 121.31 82.834 120.072 84.072 C 118.834 85.31 117.153 86.004 115.402 86 L 92.598 86 C 90.847 86.004 89.166 85.31 87.928 84.072 C 86.69 82.834 85.996 81.153 86 79.402 L 86 77.902 Z " fill="rgb(0,0,0)"/><path d=" M 8.598 45 C 3.863 45 0 48.863 0 53.598 L 0 79.402 C 0 84.137 3.863 88 8.598 88 L 31.402 88 C 36.137 88 40 84.137 40 79.402 L 40 53.598 C 40 48.863 36.137 45 31.402 45 L 8.598 45 Z  M 8.598 47 L 31.402 47 C 33.153 46.996 34.834 47.69 36.072 48.928 C 37.31 50.166 38.004 51.847 38 53.598 L 38 72.402 C 38.004 74.153 37.31 75.834 36.072 77.072 C 34.834 78.31 33.153 79.004 31.402 79 L 8.598 79 C 6.847 79.004 5.166 78.31 3.928 77.072 C 2.69 75.834 1.996 74.153 2 72.402 L 2 53.598 C 1.996 51.847 2.69 50.166 3.928 48.928 C 5.166 47.69 6.847 46.996 8.598 47 L 8.598 47 Z  M 2 77.902 C 3.63 79.863 6.048 80.999 8.598 81 L 31.402 81 C 33.952 80.999 36.37 79.863 38 77.902 L 38 79.402 C 38.004 81.153 37.31 82.834 36.072 84.072 C 34.834 85.31 33.153 86.004 31.402 86 L 8.598 86 C 6.847 86.004 5.166 85.31 3.928 84.072 C 2.69 82.834 1.996 81.153 2 79.402 L 2 77.902 Z " fill="rgb(0,0,0)"/><mask id="_mask_6ohjbic7C2EUDD2DYrCzpXougoNMv4yZ" x="-200%" y="-200%" width="400%" height="400%"><rect x="-200%" y="-200%" width="400%" height="400%" style="fill:white;"/><path d=" M 53.6 27.402 L 62 10 L 70.4 27.402 L 70.4 27.402 L 70.4 27.402 L 66.2 19 L 57.8 19 L 53.6 27.402 Z " fill="black" stroke="none"/></mask><path d=" M 53.6 27.402 L 62 10 L 70.4 27.402 L 70.4 27.402 L 70.4 27.402 L 66.2 19 L 57.8 19 L 53.6 27.402 Z " fill="none"/><path d=" M 53.6 27.402 L 62 10 L 70.4 27.402 L 70.4 27.402 L 70.4 27.402 L 66.2 19 L 57.8 19 L 53.6 27.402 Z " fill="none" mask="url(#_mask_6ohjbic7C2EUDD2DYrCzpXougoNMv4yZ)" vector-effect="non-scaling-stroke" stroke-width="2" stroke="rgb(0,0,0)" stroke-opacity="100" stroke-linejoin="miter" stroke-linecap="square" stroke-miterlimit="3"/><mask id="_mask_ZyxwgB77y1qRiTYdGG8DMj0Fn84JjcH5" x="-200%" y="-200%" width="400%" height="400%"><rect x="-200%" y="-200%" width="400%" height="400%" style="fill:white;"/><path d=" M 18.263 72.436 L 18.263 53.632 Q 0.597 53.564 20.263 53.632 Q 39.93 53.701 20.263 63.034" fill="black" stroke="none"/></mask><path d=" M 18.263 72.436 L 18.263 53.632 Q 0.597 53.564 20.263 53.632 Q 39.93 53.701 20.263 63.034" fill="none"/><path d=" M 18.263 72.436 L 18.263 53.632 Q 0.597 53.564 20.263 53.632 Q 39.93 53.701 20.263 63.034" fill="none" mask="url(#_mask_ZyxwgB77y1qRiTYdGG8DMj0Fn84JjcH5)" vector-effect="non-scaling-stroke" stroke-width="2" stroke="rgb(0,0,0)" stroke-opacity="100" stroke-linejoin="miter" stroke-linecap="square" stroke-miterlimit="3"/><mask id="_mask_sTPDKzwY3aFMCeZOA03A3bO7TQqkkn7u" x="-200%" y="-200%" width="400%" height="400%"><rect x="-200%" y="-200%" width="400%" height="400%" style="fill:white;"/><path d=" M 102.009 72.402 C 101.056 72.385 100.198 72.369 99.434 72.355 C 98.107 72.333 97.011 72.263 97.44 72.271 Q 98.084 72.283 102.009 72.402 L 102.009 72.436 L 102.009 53.632 Q 99.086 53.623 97.503 53.61 C 95.217 53.591 101.315 53.623 104.009 53.632 Q 123.676 53.701 104.009 63.034 Q 116.44 72.667 102.009 72.402 Z " fill="black" stroke="none"/></mask><path d=" M 102.009 72.402 C 101.056 72.385 100.198 72.369 99.434 72.355 C 98.107 72.333 97.011 72.263 97.44 72.271 Q 98.084 72.283 102.009 72.402 L 102.009 72.436 L 102.009 53.632 Q 99.086 53.623 97.503 53.61 C 95.217 53.591 101.315 53.623 104.009 53.632 Q 123.676 53.701 104.009 63.034 Q 116.44 72.667 102.009 72.402 Z " fill="none"/><path d=" M 102.009 72.402 C 101.056 72.385 100.198 72.369 99.434 72.355 C 98.107 72.333 97.011 72.263 97.44 72.271 Q 98.084 72.283 102.009 72.402 L 102.009 72.436 L 102.009 53.632 Q 99.086 53.623 97.503 53.61 C 95.217 53.591 101.315 53.623 104.009 53.632 Q 123.676 53.701 104.009 63.034 Q 116.44 72.667 102.009 72.402 Z " fill="none" mask="url(#_mask_sTPDKzwY3aFMCeZOA03A3bO7TQqkkn7u)" vector-effect="non-scaling-stroke" stroke-width="2" stroke="rgb(0,0,0)" stroke-opacity="100" stroke-linejoin="miter" stroke-linecap="square" stroke-miterlimit="3"/><mask id="_mask_4QbpZQqyt7bPYkSw9cx1IRyio1UXdxOH" x="-200%" y="-200%" width="400%" height="400%"><rect x="-200%" y="-200%" width="400%" height="400%" style="fill:white;"/><path d=" M 62.899 54.984 L 60.76 66.619 L 59.899 70.617" fill="black" stroke="none"/></mask><path d=" M 62.899 54.984 L 60.76 66.619 L 59.899 70.617" fill="none"/><path d=" M 62.899 54.984 L 60.76 66.619 L 59.899 70.617" fill="none" mask="url(#_mask_4QbpZQqyt7bPYkSw9cx1IRyio1UXdxOH)" vector-effect="non-scaling-stroke" stroke-width="2" stroke="rgb(0,0,0)" stroke-opacity="100" stroke-linejoin="miter" stroke-linecap="square" stroke-miterlimit="3"/><mask id="_mask_kVQikQnB6PB9HcXaBEQihaahfhuK7ukX" x="-200%" y="-200%" width="400%" height="400%"><rect x="-200%" y="-200%" width="400%" height="400%" style="fill:white;"/><path d=" M 65 58.207 L 68.834 60.251 L 74.45 63.538 L 73.368 63.987 L 67.565 66.395 L 65.091 67.421 L 65.091 67.421" fill="black" stroke="none"/></mask><path d=" M 65 58.207 L 68.834 60.251 L 74.45 63.538 L 73.368 63.987 L 67.565 66.395 L 65.091 67.421 L 65.091 67.421" fill="none"/><path d=" M 65 58.207 L 68.834 60.251 L 74.45 63.538 L 73.368 63.987 L 67.565 66.395 L 65.091 67.421 L 65.091 67.421" fill="none" mask="url(#_mask_kVQikQnB6PB9HcXaBEQihaahfhuK7ukX)" vector-effect="non-scaling-stroke" stroke-width="2" stroke="rgb(0,0,0)" stroke-opacity="100" stroke-linejoin="miter" stroke-linecap="square" stroke-miterlimit="3"/><mask id="_mask_M4pzUXPTeXUCV0zLZB98pZmNVdWrXbZG" x="-200%" y="-200%" width="400%" height="400%"><rect x="-200%" y="-200%" width="400%" height="400%" style="fill:white;"/><path d=" M 58.35 58.207 L 48.85 63.468 L 58.35 67.407" fill="black" stroke="none"/></mask><path d=" M 58.35 58.207 L 48.85 63.468 L 58.35 67.407" fill="none"/><path d=" M 58.35 58.207 L 48.85 63.468 L 58.35 67.407" fill="none" mask="url(#_mask_M4pzUXPTeXUCV0zLZB98pZmNVdWrXbZG)" vector-effect="non-scaling-stroke" stroke-width="2" stroke="rgb(0,0,0)" stroke-opacity="100" stroke-linejoin="miter" stroke-linecap="square" stroke-miterlimit="3"/></g></g></g></svg>